<?xml version="1.0" encoding="UTF-8"?><svg id="_x3C_レイヤー_x3E_" xmlns="http://www.w3.org/2000/svg" viewBox="0 0 1261.56 507.42"><defs><style>.cls-1{fill:#f5c63b;}.cls-2{fill:#45ccca;}.cls-3{fill:#597acc;}.cls-4{fill:#3ba5f2;}.cls-5{fill:#222;}</style></defs><path class="cls-5" d="M522.98,363.42c-13.83,17.23-36.81,25.53-58.09,25.53-45.31,0-72.76-33.19-72.76-73.41,0-42.98,31.06-73.41,72.35-73.41,16.6,0,35.32,5.53,47.45,18.09,2.55,2.55,4.04,5.32,4.04,8.72,0,6.38-4.47,11.91-11.7,11.91-2.97,0-5.75-1.06-8.51-2.98-8.08-6.17-16.8-11.7-31.27-11.7-27.88,0-46.17,21.06-46.17,49.36s17.02,50.64,46.59,50.64c14.48,0,27.23-5.11,35.54-12.77v-21.91h-27.66c-6.38,0-11.91-5.11-11.91-11.7s5.53-11.7,11.91-11.7h40c7.45,0,13.19,5.96,13.19,13.19v33.83c0,3.62-.85,5.53-2.98,8.3Z"/><path class="cls-5" d="M675.66,386.4h-79.78c-7.24,0-13.19-5.74-13.19-12.98v-115.75c0-7.23,5.96-12.98,13.19-12.98h76.59c6.81,0,12.34,5.11,12.34,11.92s-5.53,12.13-12.34,12.13h-63.83v33.83h35.1c6.6,0,12.13,5.32,12.13,12.13s-5.53,11.92-12.13,11.92h-35.1v35.74h67.02c6.81,0,12.34,5.32,12.34,12.13s-5.53,11.91-12.34,11.91Z"/><path class="cls-5" d="M918,388.11c-7.23,0-13.19-5.96-13.19-13.19v-118.72c0-7.23,5.96-13.19,13.19-13.19s12.77,5.96,12.77,13.19v52.13l64.04-61.91c2.35-2.34,5.32-3.4,8.51-3.4,6.38,0,12.56,5.11,12.56,11.91,0,4.04-1.28,7.02-3.84,9.36l-37.02,35.74,43.19,68.94c1.49,2.13,2.13,4.89,2.13,7.23,0,5.74-4.05,11.92-11.91,11.92-4.9,0-8.73-1.92-10.86-5.32l-40.64-65.32-26.17,25.32v32.13c0,7.23-5.53,13.19-12.77,13.19Z"/><path class="cls-5" d="M1160.55,386.4h-79.78c-7.24,0-13.19-5.74-13.19-12.98v-115.75c0-7.23,5.96-12.98,13.19-12.98h76.59c6.81,0,12.34,5.11,12.34,11.92s-5.53,12.13-12.34,12.13h-63.83v33.83h35.1c6.6,0,12.13,5.32,12.13,12.13s-5.53,11.92-12.13,11.92h-35.1v35.74h67.02c6.81,0,12.34,5.32,12.34,12.13s-5.53,11.91-12.34,11.91Z"/><path class="cls-5" d="M858.22,370.87l-54.47-121.07c-1.92-4.47-5.54-6.81-11.07-6.81s-9.15,2.55-11.07,6.81l-54.47,121.07c-.85,1.7-1.27,3.4-1.27,5.11,0,6.17,4.68,12.13,12.34,12.13,5.53,0,8.51-2.76,10.85-7.02l12.13-25.96h33.17c6.29,0,11.38-5.1,11.38-11.38h0c0-6.29-5.1-11.38-11.38-11.38h-23.81l22.12-54.04,43.62,102.77c2.34,4.47,5.32,7.02,10.85,7.02,7.66,0,12.34-5.96,12.34-12.13,0-1.7-.43-3.41-1.27-5.11Z"/><path class="cls-1" d="M171.38,132.34v73.51c1.97-.13,3.96-.22,5.96-.22h0c33.06,0,61.87,18.1,77.12,44.93l202.57-161.89h-241.98c-24.12,0-43.67,19.55-43.67,43.67Z"/><path class="cls-4" d="M171.38,205.86c-46.19,3.07-82.71,41.48-82.71,88.45v35.77c0,15.91,4.21,30.83,11.55,43.74l71.15-56.86v-111.1Z"/><path class="cls-3" d="M177.34,205.64h0c-2.01,0-3.99.09-5.96.22v111.1l83.08-66.4c-15.25-26.82-44.06-44.93-77.12-44.93Z"/><path class="cls-2" d="M254.46,250.56l-83.08,66.4-71.15,56.86c15.25,26.82,44.06,44.93,77.12,44.93,48.97,0,88.67-39.7,88.67-88.67v-35.77c0-15.91-4.21-30.83-11.55-43.74Z"/></svg>